<svg width="73" height="73" viewBox="0 0 73 73" fill="none" xmlns="http://www.w3.org/2000/svg">
<circle cx="36.5" cy="36.5" r="36.5" fill="#8EC7FB"/>
<path d="M36.4919 19.6412C36.5409 20.123 36.3965 20.6045 36.0906 20.9799C35.7846 21.3553 35.3421 21.5938 34.8603 21.6429C31.8825 21.9522 29.0532 23.0988 26.7002 24.95C24.3473 26.8012 22.5671 29.2812 21.5657 32.1026C20.5644 34.9241 20.383 37.9715 21.0425 40.8918C21.702 43.8121 23.1755 46.4858 25.2922 48.6031C27.4088 50.7203 30.0821 52.1945 33.0022 52.8549C35.9224 53.5152 38.9698 53.3347 41.7916 52.3341C44.6133 51.3336 47.0938 49.554 48.9456 47.2016C50.7975 44.8492 51.9449 42.0202 52.255 39.0425C52.3112 38.5662 52.5524 38.1312 52.9267 37.8313C53.3009 37.5314 53.778 37.3908 54.2551 37.4397C54.7321 37.4886 55.1708 37.7232 55.4764 38.0928C55.7819 38.4624 55.9299 38.9373 55.8883 39.415C55.5079 43.08 54.0967 46.562 51.8183 49.4578C49.5399 52.3535 46.4875 54.5443 43.015 55.7762C39.5425 57.0082 35.7919 57.231 32.198 56.4186C28.604 55.6063 25.3139 53.7922 22.7088 51.1865C20.1036 48.5808 18.2903 45.2902 17.4787 41.6961C16.6672 38.1019 16.8908 34.3514 18.1236 30.8792C19.3564 27.4069 21.5479 24.3551 24.4441 22.0773C27.3403 19.7996 30.8227 18.3892 34.4877 18.0096C34.7265 17.985 34.9677 18.0077 35.1977 18.0764C35.4277 18.1451 35.6418 18.2585 35.828 18.41C36.0141 18.5615 36.1685 18.7483 36.2825 18.9595C36.3964 19.1708 36.4676 19.4024 36.4919 19.6412Z" fill="white"/>
<path d="M38.9759 19.4779C39.0891 19.0072 39.3846 18.6006 39.7974 18.3477C40.2102 18.0947 40.7065 18.016 41.1774 18.1288C42.1003 18.348 42.9965 18.6353 43.8634 18.9811C44.0922 19.0654 44.3018 19.1947 44.4798 19.3614C44.6579 19.528 44.8007 19.7286 44.9 19.9513C44.9993 20.174 45.0529 20.4144 45.0578 20.6582C45.0627 20.902 45.0188 21.1443 44.9285 21.3708C44.8382 21.5974 44.7035 21.8035 44.5323 21.9772C44.3611 22.1508 44.1569 22.2884 43.9316 22.3818C43.7064 22.4753 43.4647 22.5227 43.2209 22.5212C42.977 22.5197 42.736 22.4695 42.5119 22.3733C41.8056 22.0933 41.0751 21.862 40.3275 21.6817C40.0942 21.626 39.8741 21.5248 39.68 21.3839C39.4858 21.2431 39.3212 21.0654 39.1957 20.861C39.0702 20.6566 38.9862 20.4294 38.9485 20.1925C38.9108 19.9556 38.9201 19.7136 38.9759 19.4803V19.4779Z" fill="white"/>
<path d="M54.9163 30.0322C54.7371 29.5821 54.3864 29.2216 53.9414 29.03C53.4963 28.8384 52.9934 28.8315 52.5432 29.0107C52.0931 29.1899 51.7325 29.5406 51.541 29.9857C51.3494 30.4307 51.3424 30.9336 51.5217 31.3838C51.8041 32.09 52.0355 32.8206 52.2157 33.5706C52.3287 34.0418 52.6243 34.4487 53.0374 34.7019C53.2419 34.8273 53.4691 34.9112 53.7061 34.9488C53.943 34.9864 54.185 34.9769 54.4183 34.9209C54.6516 34.865 54.8716 34.7636 55.0657 34.6226C55.2598 34.4816 55.4243 34.3038 55.5497 34.0993C55.6751 33.8947 55.7589 33.6675 55.7965 33.4305C55.8341 33.1936 55.8246 32.9516 55.7687 32.7183C55.5493 31.8036 55.2645 30.906 54.9163 30.0322Z" fill="white"/>
<path d="M46.944 22.6095C47.2621 22.2443 47.7122 22.0205 48.1954 21.9871C48.6786 21.9538 49.1552 22.1137 49.5204 22.4317C50.268 23.0819 50.9669 23.7881 51.6098 24.5431C51.9114 24.9133 52.056 25.387 52.0126 25.8626C51.9692 26.3381 51.7412 26.7778 51.3775 27.0873C51.0139 27.3968 50.5434 27.5516 50.067 27.5185C49.5906 27.4854 49.1462 27.267 48.8288 26.9101C48.3045 26.2936 47.7347 25.7173 47.1242 25.186C46.7587 24.8682 46.5343 24.4182 46.5005 23.935C46.4668 23.4519 46.6263 22.9751 46.944 22.6095Z" fill="white"/>
<path d="M36.4966 27.0517C36.4966 26.5673 36.3041 26.1027 35.9616 25.7602C35.6191 25.4177 35.1545 25.2253 34.6702 25.2253C34.1858 25.2253 33.7212 25.4177 33.3787 25.7602C33.0362 26.1027 32.8438 26.5673 32.8438 27.0517V39.2277C32.8438 40.2383 33.662 41.0541 34.6702 41.0541H41.9758C42.4602 41.0541 42.9247 40.8617 43.2672 40.5192C43.6097 40.1766 43.8022 39.7121 43.8022 39.2277C43.8022 38.7433 43.6097 38.2788 43.2672 37.9362C42.9247 37.5937 42.4602 37.4013 41.9758 37.4013H36.4966V27.0517Z" fill="white"/>
</svg>
