<svg width="96" height="96" viewBox="0 0 96 96" fill="none" xmlns="http://www.w3.org/2000/svg">
<circle cx="48" cy="48" r="48" fill="#8EC7FB"/>
<path d="M48 55.2105C52.5057 55.2105 56.1157 51.6137 56.1157 47.1579L56.1429 31.0526C56.1429 26.5968 52.5057 23 48 23C43.4943 23 39.8571 26.5968 39.8571 31.0526V47.1579C39.8571 51.6137 43.4943 55.2105 48 55.2105ZM62.3857 47.1579C62.3857 55.2105 55.4914 60.8474 48 60.8474C40.5086 60.8474 33.6143 55.2105 33.6143 47.1579H29C29 56.3111 36.3829 63.8805 45.2857 65.1958V74H50.7143V65.1958C59.6171 63.9074 67 56.3379 67 47.1579H62.3857Z" fill="white"/>
<rect x="76.1392" y="81.1391" width="86.2669" height="7.26788" transform="rotate(-135 76.1392 81.1391)" fill="white"/>
</svg>
