<svg width="172" height="172" viewBox="0 0 172 172" fill="none" xmlns="http://www.w3.org/2000/svg">
<path d="M162 86C162 44.0264 127.974 10 86 10C44.0264 10 10 44.0264 10 86" stroke="#3F9AEE" stroke-width="20"/>
<path d="M10 86C10 127.974 44.0264 162 86 162C127.974 162 162 127.974 162 86" stroke="#3F9AEE" stroke-width="20"/>
<path d="M86.5469 100.746L78.3438 116.571L50.6582 63.1484H65.3555L78.3438 88.6807L79.3008 86.7666L86.5469 100.746ZM90.6484 64.4814L91.332 63.1484H106.029L97.9287 78.8027L90.6484 64.4814ZM98.8516 88.6807L111.84 63.1484H126.537L98.8516 116.571L71.166 63.1484H85.8633L98.8516 88.6807Z" fill="#131313"/>
</svg>
