<svg width="73" height="73" viewBox="0 0 73 73" fill="none" xmlns="http://www.w3.org/2000/svg">
<circle cx="36.5" cy="36.5" r="36.5" fill="#8EC7FB"/>
<path d="M43.5208 40.4583H41.9079L41.3362 39.9071C43.3371 37.5796 44.5417 34.5579 44.5417 31.2708C44.5417 23.9412 38.6004 18 31.2708 18C23.9412 18 18 23.9412 18 31.2708C18 38.6004 23.9412 44.5417 31.2708 44.5417C34.5579 44.5417 37.5796 43.3371 39.9071 41.3362L40.4583 41.9079V43.5208L50.6667 53.7087L53.7087 50.6667L43.5208 40.4583ZM31.2708 40.4583C26.1871 40.4583 22.0833 36.3546 22.0833 31.2708C22.0833 26.1871 26.1871 22.0833 31.2708 22.0833C36.3546 22.0833 40.4583 26.1871 40.4583 31.2708C40.4583 36.3546 36.3546 40.4583 31.2708 40.4583Z" fill="white"/>
</svg>
